<svg xmlns="http://www.w3.org/2000/svg" xmlns:xlink="http://www.w3.org/1999/xlink" version="1.1" x="0px" y="0px" viewBox="0 0 97.7 125" enable-background="new 0 0 97.7 100" xml:space="preserve"><path d="M76.1,95.2H18.9c-1.4,0-2.5-1.1-2.5-2.5V51H8.9c-1,0-1.9-0.6-2.3-1.5c-0.4-0.9-0.2-2,0.5-2.7L46.5,6.3  c0.5-0.5,1.1-0.8,1.8-0.8c0.7,0,1.3,0.3,1.8,0.7l11.2,11.2v-2.1c0-1.4,1.1-2.5,2.5-2.5h12.3c1.4,0,2.5,1.1,2.5,2.5v19.4l12.1,12  c0.7,0.7,0.9,1.8,0.5,2.7c-0.4,0.9-1.3,1.5-2.3,1.5H78.6v41.7C78.6,94.1,77.4,95.2,76.1,95.2z M20,91.7h55V49.9  c0-1.4,1.1-2.5,2.5-2.5h8.8L75.7,36.9c-0.5-0.5-0.7-1.1-0.7-1.8V16.4H64.8V20c0,1.4-1.1,2.5-2.5,2.5c-0.7,0-1.3-0.3-1.8-0.7  L48.3,9.6L11.4,47.4h6.1c1.4,0,2.5,1.1,2.5,2.5V91.7z M59,69.9c0.8-0.5,1.1-1.6,0.6-2.4c-2.3-4-6.7-6.5-11.3-6.5  c-4.6,0-8.8,2.3-11.2,6.3c-0.5,0.8-0.2,1.9,0.6,2.4c0.8,0.5,1.9,0.2,2.4-0.6c1.8-2.9,4.8-4.6,8.2-4.6c3.4,0,6.5,1.8,8.3,4.7  c0.3,0.6,0.9,0.9,1.5,0.9C58.4,70.2,58.7,70.1,59,69.9z M34.6,63.4c3.4-4.4,8.5-6.9,14-6.9c5.4,0,10.5,2.5,13.9,6.7  c0.6,0.8,1.7,0.9,2.5,0.3c0.8-0.6,0.9-1.7,0.3-2.5c-4-5.2-10.1-8.1-16.7-8.1c-6.6,0-12.8,3-16.8,8.3c-0.6,0.8-0.4,1.9,0.3,2.5  c0.3,0.2,0.7,0.4,1.1,0.4C33.8,64.1,34.3,63.9,34.6,63.4z M70.2,58c0.8-0.6,0.9-1.7,0.2-2.5c-5.5-6.6-13.5-10.3-22.1-10.3  c-8.5,0-16.5,3.7-21.9,10.2c-0.6,0.7-0.5,1.9,0.2,2.5c0.7,0.6,1.9,0.5,2.5-0.2c4.8-5.7,11.8-8.9,19.2-8.9c7.5,0,14.5,3.3,19.4,9.1  c0.4,0.4,0.9,0.6,1.4,0.6C69.4,58.4,69.8,58.2,70.2,58z" style="&#10;    fill: #22d8e5;&#10;"/></svg>